<svg width="71" height="71" viewBox="0 0 71 71" fill="none" xmlns="http://www.w3.org/2000/svg">
<path d="M22.72 49.7L16.5221 17.8003C16.2168 16.5219 15.0741 15.62 13.7598 15.62H8.52002M22.72 49.7H48.28M22.72 49.7C25.0728 49.7 26.98 51.6073 26.98 53.96C26.98 56.3126 25.0728 58.22 22.72 58.22C20.3673 58.22 18.46 56.3126 18.46 53.96C18.46 51.6073 20.3673 49.7 22.72 49.7ZM48.28 49.7C50.6327 49.7 52.54 51.6073 52.54 53.96C52.54 56.3126 50.6327 58.22 48.28 58.22C45.9274 58.22 44.02 56.3126 44.02 53.96C44.02 51.6073 45.9274 49.7 48.28 49.7ZM22.1054 41.18H49.7L53.96 21.3H17.04" stroke="#591F19" stroke-width="4"/>
</svg>
