<svg width="48" height="48" viewBox="0 0 48 48" fill="none" xmlns="http://www.w3.org/2000/svg">
<path fill-rule="evenodd" clip-rule="evenodd" d="M40 2C43.3138 2 46 4.6863 46 8V40C46 43.3138 43.3138 46 40 46H8C4.6863 46 2 43.3138 2 40V8C2 4.6863 4.6863 2 8 2H40ZM40 6C41.1046 6 42 6.89544 42 8V40C42 41.1046 41.1046 42 40 42H30V27.9998H34.1524C35.0132 27.9998 35.7774 27.449 36.0498 26.6322L36.9358 23.9742C37.2596 23.0028 36.5366 21.9998 35.5128 21.9998H30V17.9998C30 16.9998 31 15.9998 32 15.9998H36C37.1046 15.9998 38 15.1044 38 13.9998V12.6279C38 11.9818 37.5874 11.4026 36.9626 11.2377C34.341 10.5459 32 10.5459 32 10.5459C27 10.5459 24 13.9998 24 16.9998V21.9998H20C18.8954 21.9998 18 22.8952 18 23.9998V25.9998C18 27.1044 18.8954 27.9998 20 27.9998H24V42H8C6.89544 42 6 41.1046 6 40V8C6 6.89544 6.89544 6 8 6H40Z" fill="#591F19"/>
</svg>
