<svg width="48" height="48" viewBox="0 0 48 48" fill="none" xmlns="http://www.w3.org/2000/svg">
<path fill-rule="evenodd" clip-rule="evenodd" d="M24 36C30.6274 36 36 30.6274 36 24C36 17.3726 30.6274 12 24 12C17.3726 12 12 17.3726 12 24C12 30.6274 17.3726 36 24 36ZM24 32C28.4182 32 32 28.4182 32 24C32 19.5817 28.4182 16 24 16C19.5817 16 16 19.5817 16 24C16 28.4182 19.5817 32 24 32Z" fill="#591F19"/>
<path d="M36 10C34.8954 10 34 10.8954 34 12C34 13.1046 34.8954 14 36 14C37.1046 14 38 13.1046 38 12C38 10.8954 37.1046 10 36 10Z" fill="#591F19"/>
<path fill-rule="evenodd" clip-rule="evenodd" d="M3.30792 8.55212C2 11.1191 2 14.4794 2 21.2V26.8C2 33.5206 2 36.881 3.30792 39.4478C4.4584 41.7058 6.29416 43.5416 8.55212 44.692C11.1191 46 14.4794 46 21.2 46H26.8C33.5206 46 36.881 46 39.4478 44.692C41.7058 43.5416 43.5416 41.7058 44.692 39.4478C46 36.881 46 33.5206 46 26.8V21.2C46 14.4794 46 11.1191 44.692 8.55212C43.5416 6.29416 41.7058 4.4584 39.4478 3.30792C36.881 2 33.5206 2 26.8 2H21.2C14.4794 2 11.1191 2 8.55212 3.30792C6.29416 4.4584 4.4584 6.29416 3.30792 8.55212ZM26.8 6H21.2C17.7737 6 15.4445 6.00312 13.6442 6.1502C11.8905 6.29348 10.9937 6.55318 10.3681 6.87194C8.86278 7.63894 7.63894 8.86278 6.87194 10.3681C6.55318 10.9937 6.29348 11.8905 6.1502 13.6442C6.00312 15.4445 6 17.7737 6 21.2V26.8C6 30.2264 6.00312 32.5554 6.1502 34.3558C6.29348 36.1096 6.55318 37.0064 6.87194 37.632C7.63894 39.1372 8.86278 40.361 10.3681 41.128C10.9937 41.4468 11.8905 41.7066 13.6442 41.8498C15.4445 41.9968 17.7737 42 21.2 42H26.8C30.2264 42 32.5554 41.9968 34.3558 41.8498C36.1096 41.7066 37.0064 41.4468 37.632 41.128C39.1372 40.361 40.361 39.1372 41.128 37.632C41.4468 37.0064 41.7066 36.1096 41.8498 34.3558C41.9968 32.5554 42 30.2264 42 26.8V21.2C42 17.7737 41.9968 15.4445 41.8498 13.6442C41.7066 11.8905 41.4468 10.9937 41.128 10.3681C40.361 8.86278 39.1372 7.63894 37.632 6.87194C37.0064 6.55318 36.1096 6.29348 34.3558 6.1502C32.5554 6.00312 30.2264 6 26.8 6Z" fill="#591F19"/>
</svg>
