<svg width="54" height="54" viewBox="0 0 54 54" fill="none" xmlns="http://www.w3.org/2000/svg">
<path fill-rule="evenodd" clip-rule="evenodd" d="M13.5 4.5C8.52943 4.5 4.5 8.52943 4.5 13.5V40.5C4.5 45.4705 8.52943 49.5 13.5 49.5H40.5C45.4705 49.5 49.5 45.4705 49.5 40.5V13.5C49.5 8.52943 45.4705 4.5 40.5 4.5H13.5ZM9 13.5C9 11.0147 11.0147 9 13.5 9H40.5C42.9853 9 45 11.0147 45 13.5V40.5C45 42.9853 42.9853 45 40.5 45H13.5C11.0147 45 9 42.9853 9 40.5V13.5ZM20.25 24.75C20.25 23.5073 19.2426 22.5 18 22.5C16.7574 22.5 15.75 23.5073 15.75 24.75V38.25C15.75 39.4927 16.7574 40.5 18 40.5C19.2426 40.5 20.25 39.4927 20.25 38.25V24.75ZM21.375 16.875C21.375 18.739 19.864 20.25 18 20.25C16.136 20.25 14.625 18.739 14.625 16.875C14.625 15.011 16.136 13.5 18 13.5C19.864 13.5 21.375 15.011 21.375 16.875ZM27 22.5C27.7639 22.5 28.4389 22.8807 28.8457 23.4628C29.999 22.8379 31.2831 22.5 32.625 22.5C37.4836 22.5 40.5 26.833 40.5 30.5356V30.5527V30.5696V30.5867V30.6038V30.6209V30.6382V30.6553V30.6727V30.69V30.7073V30.7249V30.7422V30.7597V30.7773V30.7948V30.8124V30.8299V30.8477V30.8655V30.883V30.901V30.9188V30.9366V30.9546V30.9724V30.9904V31.0084V31.0266V31.0446V31.0628V31.0808V31.099V31.1173V31.1355V31.1539V31.1722V31.1906V31.2088V31.2273V31.2457V31.2644V31.2829V31.3013V31.32V31.3387V31.3571V31.3758V31.3947V31.4134V31.432V31.4509V31.4698V31.4885V31.5074V31.5263V31.5452V31.5643V31.5832V31.6024V31.6213V31.6404V31.6595V31.6786V31.6978V31.7169V31.736V31.7554V31.7745V31.7938V31.8132V31.8325V31.8517V31.8712V31.8906V31.9099V31.9293V31.9489V31.9682V31.9878V32.0071V32.0267V32.0463V32.0659V32.0854V32.105V32.1246V32.1444V32.164V32.1838V32.2033V32.2231V32.2427V32.2625V32.2823V32.3021V32.3219V32.3417V32.3615V32.3813V32.4011V32.4209V32.4409V32.4607V32.4808V32.5006V32.5206V32.5404V32.5604V32.5804V32.6005V32.6203V32.6403V32.6603V32.6803V32.7004V32.7204V32.7404V32.7604V32.7807V32.8007V32.8207V32.8408V32.861V32.881V32.9011V32.9213V32.9413V32.9616V32.9816V33.0016V33.0219V33.0421V33.0622V33.0824V33.1024V33.1227V33.1429V33.163V33.1832V33.2032V33.2235V33.2437V33.2638V33.284V33.3043V33.3243V33.3445V33.3648V33.385V33.4051V33.4253V33.4456V33.4656V33.4858V33.5061V33.5261V33.5464V33.5664V33.5866V33.6067V33.6269V33.6472V33.6672V33.6874V33.7075V33.7275V33.7477V33.7678V33.788V33.808V33.8281V33.8481V33.8683V33.8884V33.9084V33.9284V33.9484V33.9685V33.9885V34.0085V34.0285V34.0486V34.0686V34.0884V34.1084V34.1284V34.1482V34.1683V34.1881V34.2081V34.2279V34.2479V34.2677V34.2875V34.3073V34.3271V34.3469V34.3667V34.3865V34.4063V34.4261V34.4457V34.4655V34.4851V34.5049V34.5244V34.544V34.5636V34.5832V34.6027V34.6223V34.6419V34.6615V34.681V34.7004V34.72V34.7393V34.7587V34.7782V34.7976V34.8169V34.8361V34.8554V34.8748V34.8941V34.9132V34.9324V34.9517V34.9708V34.99V35.0091V35.0282V35.0471V35.0662V35.0851V35.1043V35.1232V35.1421V35.161V35.1799V35.1988V35.2174V35.2363V35.255V35.2737V35.2924V35.311V35.3297V35.3484V35.3668V35.3855V35.404V35.4224V35.4409V35.4593V35.4778V35.496V35.5144V35.5327V35.5509V35.5691V35.5873V35.6053V35.6236V35.6416V35.6596V35.6776V35.6956V35.7136V35.7313V35.7491V35.7671V35.7849V35.8024V35.8202V35.838V35.8555V35.8731V35.8906V35.9082V35.9255V35.9431V35.9604V35.9777V35.995V36.0124V36.0295V36.0468V36.0639V36.081V36.0979V36.115V36.1318V36.1487V36.1656V36.1825V36.1993V36.216V36.2326V36.2493V36.2659V36.2824V36.299V36.3154V36.3319V36.3481V36.3645V36.3807V36.3969V36.4131V36.4293V36.4453V36.4612V36.4772V36.4932V36.5089V36.5247V36.5404V36.5562V36.5719V36.5875V36.603V36.6185V36.634V36.6493V36.6646V36.6799V36.6952V36.7103V36.7254V36.7405V36.7555V36.7706V36.7855V36.8003V36.8149V36.8298V36.8444V36.859V36.8734V36.8881V36.9025V36.9169V36.931V36.9454V36.9596V36.9738V36.9877V37.0017V37.0156V37.0296V37.0435V37.0573V37.071V37.0845V37.0982V37.1117V37.125V37.1385V37.1518V37.165V37.1783V37.1914V37.2044V37.2175V37.2303V37.2431V37.2559V37.2688V37.2814V37.294V37.3066V37.3189V37.3313V37.3437V37.3558V37.3682V37.3801V37.3923V37.4042V37.4161V37.4281V37.4398V37.4515V37.4632V37.4746V37.4861V37.4976V37.5089V37.5201V37.5313V37.5424V37.5534V37.5644V37.5752V37.586V37.5968V37.6074V37.618V37.6285V37.6389V37.6492V37.6596V37.6697V37.6798V37.69V37.6999V37.7098V37.7197V37.7293V37.739V37.7485V37.7579V37.7674V37.7768V37.786V37.795V37.8043V37.8133V37.822V37.831V37.8398V37.8484V37.8569V37.8655V37.8738V37.8821V37.8904V37.8985V37.9066V37.9147V37.9226V37.9305V37.9381V37.9458V37.9534V37.9609V37.9683V37.9755V37.9827V37.9899V37.9969V38.0038V38.0106V38.0173V38.0241V38.0306V38.0371V38.0437V38.05V38.056V38.0621V38.0682V38.0743V38.0801V38.0857V38.0914V38.097V38.1024V38.1078V38.1132V38.1184V38.1235V38.1285V38.1332V38.1382V38.1429V38.1474V38.1519V38.1564V38.1607V38.1649V38.169V38.173V38.1771V38.1809V38.1845V38.1881V38.1917V38.1951V38.1985V38.2016V38.2048V38.2079V38.2108V38.2135V38.2162V38.2189V38.2214V38.2239V38.2261V38.2304V38.2342V38.2378V38.2408V38.2435V38.2464V38.2491C40.5 39.4918 39.4927 40.5 38.25 40.5C37.0073 40.5 36 39.4927 36 38.25V38.2473V38.2446V38.2421V38.2394V38.236V38.2324V38.2284V38.2239V38.2214V38.2189V38.2162V38.2135V38.2108V38.2079V38.2048V38.2016V38.1985V38.1951V38.1917V38.1881V38.1845V38.1809V38.1771V38.173V38.169V38.1649V38.1607V38.1564V38.1519V38.1474V38.1429V38.1382V38.1332V38.1285V38.1235V38.1184V38.1132V38.1078V38.1024V38.097V38.0914V38.0857V38.0801V38.0743V38.0682V38.0621V38.056V38.05V38.0437V38.0371V38.0306V38.0241V38.0173V38.0106V38.0038V37.9969V37.9899V37.9827V37.9755V37.9683V37.9609V37.9534V37.9458V37.9381V37.9305V37.9226V37.9147V37.9066V37.8985V37.8904V37.8821V37.8738V37.8655V37.8569V37.8484V37.8398V37.831V37.822V37.8133V37.8043V37.795V37.786V37.7768V37.7674V37.7579V37.7485V37.739V37.7293V37.7197V37.7098V37.6999V37.69V37.6798V37.6697V37.6596V37.6492V37.6389V37.6285V37.618V37.6074V37.5968V37.586V37.5752V37.5644V37.5534V37.5424V37.5313V37.5201V37.5089V37.4976V37.4861V37.4746V37.4632V37.4515V37.4398V37.4281V37.4161V37.4042V37.3923V37.3801V37.3682V37.3558V37.3437V37.3313V37.3189V37.3066V37.294V37.2814V37.2688V37.2559V37.2431V37.2303V37.2175V37.2044V37.1914V37.1783V37.165V37.1518V37.1385V37.125V37.1117V37.0982V37.0845V37.071V37.0573V37.0435V37.0296V37.0156V37.0017V36.9877V36.9738V36.9596V36.9454V36.931V36.9169V36.9025V36.8881V36.8734V36.859V36.8444V36.8298V36.8149V36.8003V36.7855V36.7706V36.7555V36.7405V36.7254V36.7103V36.6952V36.6799V36.6646V36.6493V36.634V36.6185V36.603V36.5875V36.5719V36.5562V36.5404V36.5247V36.5089V36.4932V36.4772V36.4612V36.4453V36.4293V36.4131V36.3969V36.3807V36.3645V36.3481V36.3319V36.3154V36.299V36.2824V36.2659V36.2493V36.2326V36.216V36.1993V36.1825V36.1656V36.1487V36.1318V36.115V36.0979V36.081V36.0639V36.0468V36.0295V36.0124V35.995V35.9777V35.9604V35.9431V35.9255V35.9082V35.8906V35.8731V35.8555V35.838V35.8202V35.8024V35.7849V35.7671V35.7491V35.7313V35.7136V35.6956V35.6776V35.6596V35.6416V35.6236V35.6053V35.5873V35.5691V35.5509V35.5327V35.5144V35.496V35.4778V35.4593V35.4409V35.4224V35.404V35.3855V35.3668V35.3484V35.3297V35.311V35.2924V35.2737V35.255V35.2363V35.2174V35.1988V35.1799V35.161V35.1421V35.1232V35.1043V35.0851V35.0662V35.0471V35.0282V35.0091V34.99V34.9708V34.9517V34.9324V34.9132V34.8941V34.8748V34.8554V34.8361V34.8169V34.7976V34.7782V34.7587V34.7393V34.72V34.7004V34.681V34.6615V34.6419V34.6223V34.6027V34.5832V34.5636V34.544V34.5244V34.5049V34.4851V34.4655V34.4457V34.4261V34.4063V34.3865V34.3667V34.3469V34.3271V34.3073V34.2875V34.2677V34.2479V34.2279V34.2081V34.1881V34.1683V34.1482V34.1284V34.1084V34.0884V34.0686V34.0486V34.0285V34.0085V33.9885V33.9685V33.9484V33.9284V33.9084V33.8884V33.8683V33.8481V33.8281V33.808V33.788V33.7678V33.7477V33.7275V33.7075V33.6874V33.6672V33.6472V33.6269V33.6067V33.5866V33.5664V33.5464V33.5261V33.5061V33.4858V33.4656V33.4456V33.4253V33.4051V33.385V33.3648V33.3445V33.3243V33.3043V33.284V33.2638V33.2437V33.2235V33.2032V33.1832V33.163V33.1429V33.1227V33.1024V33.0824V33.0622V33.0421V33.0219V33.0016V32.9816V32.9616V32.9413V32.9213V32.9011V32.881V32.861V32.8408V32.8207V32.8007V32.7807V32.7604V32.7404V32.7204V32.7004V32.6803V32.6603V32.6403V32.6203V32.6005V32.5804V32.5604V32.5404V32.5206V32.5006V32.4808V32.4607V32.4409V32.4209V32.4011V32.3813V32.3615V32.3417V32.3219V32.3021V32.2823V32.2625V32.2427V32.2231V32.2033V32.1838V32.164V32.1444V32.1246V32.105V32.0854V32.0659V32.0463V32.0267V32.0071V31.9878V31.9682V31.9489V31.9293V31.9099V31.8906V31.8712V31.8517V31.8325V31.8132V31.7938V31.7745V31.7554V31.736V31.7169V31.6978V31.6786V31.6595V31.6404V31.6213V31.6024V31.5832V31.5643V31.5452V31.5263V31.5074V31.4885V31.4698V31.4509V31.432V31.4134V31.3947V31.3758V31.3571V31.3387V31.32V31.3013V31.2829V31.2644V31.2457V31.2273V31.2088V31.1906V31.1722V31.1539V31.1355V31.1173V31.099V31.0808V31.0628V31.0446V31.0266V31.0084V30.9904V30.9724V30.9546V30.9366V30.9188V30.901V30.883V30.8655V30.8477V30.8299V30.8124V30.7948V30.7773V30.7597V30.7422V30.7249V30.7073V30.69V30.6727V30.6553V30.6382V30.6209V30.6038V30.5867V30.5696V30.5527V30.5356C36 28.8072 34.5163 27 32.625 27C31.4458 27 30.1441 27.641 29.25 29.167V29.173V29.1962V29.2194V29.2426V29.266V29.2891V29.3125V29.3359V29.3596V29.383V29.4064V29.43V29.4536V29.4772V29.5009V29.5245V29.5483V29.5722V29.5958V29.6197V29.6435V29.6674V29.6914V29.7153V29.7394V29.7634V29.7873V29.8116V29.8357V29.8597V29.8838V29.9081V29.9324V29.9565V29.9808V30.0051V30.0294V30.0539V30.0782V30.1027V30.127V30.1516V30.1761V30.2006V30.2251V30.2497V30.2742V30.2989V30.3235V30.3482V30.3727V30.3975V30.4222V30.447V30.4717V30.4965V30.5212V30.5462V30.571V30.5957V30.6207V30.6457V30.6704V30.6954V30.7204V30.7453V30.7703V30.7953V30.8203V30.8452V30.8704V30.8954V30.9204V30.9456V30.9706V30.9958V31.021V31.0459V31.0711V31.0963V31.1215V31.1465V31.1717V31.1969V31.2221V31.2475V31.2727V31.2979V31.3231V31.3483V31.3735V31.399V31.4242V31.4494V31.4748V31.5V31.5254V31.5506V31.576V31.6012V31.6264V31.6519V31.6773V31.7025V31.7279V31.7531V31.7785V31.8037V31.8292V31.8546V31.8798V31.9052V31.9304V31.9558V31.9813V32.0065V32.0319V32.0571V32.0825V32.1077V32.1331V32.1583V32.1838V32.209V32.2344V32.2596V32.285V32.3102V32.3356V32.3608V32.386V32.4112V32.4367V32.4619V32.4871V32.5123V32.5375V32.5627V32.5879V32.6131V32.6383V32.6635V32.6887V32.7139V32.7388V32.764V32.7892V32.8142V32.8394V32.8644V32.8896V32.9146V32.9395V32.9645V32.9895V33.0147V33.0397V33.0644V33.0894V33.1144V33.1393V33.1641V33.1891V33.2138V33.2388V33.2635V33.2883V33.313V33.3378V33.3625V33.3873V33.412V33.4366V33.4613V33.4858V33.5106V33.5351V33.5596V33.5842V33.6087V33.6332V33.6575V33.682V33.7063V33.7309V33.7552V33.7795V33.8038V33.8281V33.8524V33.8764V33.9007V33.9248V33.9489V33.973V33.997V34.0211V34.0452V34.0693V34.0931V34.117V34.1408V34.1647V34.1885V34.2124V34.2362V34.2598V34.2835V34.3071V34.3307V34.3543V34.378V34.4014V34.4248V34.4484V34.4718V34.495V34.5184V34.5418V34.5649V34.5881V34.6113V34.6345V34.6574V34.6806V34.7035V34.7265V34.7494V34.7724V34.7951V34.8181V34.8408V34.8635V34.886V34.9087V34.9312V34.9537V34.9762V34.9987V35.0212V35.0435V35.0658V35.0881V35.1103V35.1324V35.1547V35.1767V35.1988V35.2206V35.2426V35.2645V35.2863V35.3081V35.3297V35.3515V35.3731V35.3947V35.4161V35.4377V35.4591V35.4805V35.5018V35.523V35.5441V35.5653V35.5864V35.6076V35.6285V35.6494V35.6701V35.6911V35.7118V35.7325V35.7532V35.7736V35.7943V35.8148V35.8351V35.8555V35.8758V35.896V35.9161V35.9363V35.9563V35.9764V35.9962V36.016V36.0358V36.0556V36.0751V36.0947V36.1143V36.1339V36.1532V36.1726V36.1919V36.211V36.2302V36.2493V36.2684V36.2873V36.3062V36.3249V36.3436V36.3622V36.3809V36.3996V36.418V36.4363V36.4547V36.4729V36.4912V36.5092V36.5272V36.5452V36.5632V36.5809V36.5987V36.6163V36.6338V36.6514V36.6689V36.6862V36.7036V36.7207V36.738V36.7551V36.772V36.7888V36.8057V36.8226V36.8392V36.8557V36.8723V36.8887V36.9052V36.9214V36.9376V36.9538V36.9697V36.9857V37.0015V37.0174V37.033V37.0487V37.0642V37.0798V37.0951V37.1104V37.1254V37.1407V37.1558V37.1707V37.1855V37.2004V37.215V37.2296V37.244V37.2584V37.2728V37.2872V37.3012V37.3153V37.3293V37.3432V37.357V37.3707V37.3844V37.3979V37.4112V37.4247V37.438V37.451V37.4641V37.4771V37.4899V37.5028V37.5154V37.528V37.5406V37.5529V37.5651V37.5775V37.5894V37.6015V37.6135V37.6252V37.6369V37.6486V37.66V37.6715V37.6828V37.694V37.705V37.7161V37.7271V37.7379V37.7487V37.7593V37.7696V37.7802V37.7903V37.8007V37.8108V37.8207V37.8306V37.8403V37.8499V37.8596V37.8691V37.8783V37.8877V37.8967V37.9057V37.9147V37.9235V37.9323V37.9408V37.9494V37.9577V37.966V37.9741V37.9822V37.9901V37.998V38.0056V38.0133V38.0207V38.0281V38.0353V38.0425V38.0495V38.0565V38.0632V38.07V38.0765V38.083V38.0893V38.0954V38.1017V38.1076V38.1134V38.1193V38.1249V38.1303V38.1357V38.1411V38.1463V38.1512V38.1562V38.1609V38.1656V38.1701V38.1746V38.1789V38.1832V38.1872V38.191V38.1949V38.1985V38.2021V38.2057V38.2088V38.212V38.2151V38.218V38.221V38.2237V38.2261V38.2286V38.2309V38.2351V38.2387V38.2419V38.2446V38.2475V38.2498C29.25 39.4924 28.2427 40.5 27 40.5C25.7573 40.5 24.75 39.4927 24.75 38.25V38.2475V38.2446V38.2419V38.2387V38.2351V38.2309V38.2286V38.2261V38.2237V38.221V38.218V38.2151V38.212V38.2088V38.2057V38.2021V38.1985V38.1949V38.191V38.1872V38.1832V38.1789V38.1746V38.1701V38.1656V38.1609V38.1562V38.1512V38.1463V38.1411V38.1357V38.1303V38.1249V38.1193V38.1134V38.1076V38.1017V38.0954V38.0893V38.083V38.0765V38.07V38.0632V38.0565V38.0495V38.0425V38.0353V38.0281V38.0207V38.0133V38.0056V37.998V37.9901V37.9822V37.9741V37.966V37.9577V37.9494V37.9408V37.9323V37.9235V37.9147V37.9057V37.8967V37.8877V37.8783V37.8691V37.8596V37.8499V37.8403V37.8306V37.8207V37.8108V37.8007V37.7903V37.7802V37.7696V37.7593V37.7487V37.7379V37.7271V37.7161V37.705V37.694V37.6828V37.6715V37.66V37.6486V37.6369V37.6252V37.6135V37.6015V37.5894V37.5775V37.5651V37.5529V37.5406V37.528V37.5154V37.5028V37.4899V37.4771V37.4641V37.451V37.438V37.4247V37.4112V37.3979V37.3844V37.3707V37.357V37.3432V37.3293V37.3153V37.3012V37.2872V37.2728V37.2584V37.244V37.2296V37.215V37.2004V37.1855V37.1707V37.1558V37.1407V37.1254V37.1104V37.0951V37.0798V37.0642V37.0487V37.033V37.0174V37.0015V36.9857V36.9697V36.9538V36.9376V36.9214V36.9052V36.8887V36.8723V36.8557V36.8392V36.8226V36.8057V36.7888V36.772V36.7551V36.738V36.7207V36.7036V36.6862V36.6689V36.6514V36.6338V36.6163V36.5987V36.5809V36.5632V36.5452V36.5272V36.5092V36.4912V36.4729V36.4547V36.4363V36.418V36.3996V36.3809V36.3622V36.3436V36.3249V36.3062V36.2873V36.2684V36.2493V36.2302V36.211V36.1919V36.1726V36.1532V36.1339V36.1143V36.0947V36.0751V36.0556V36.0358V36.016V35.9962V35.9764V35.9563V35.9363V35.9161V35.896V35.8758V35.8555V35.8351V35.8148V35.7943V35.7736V35.7532V35.7325V35.7118V35.6911V35.6701V35.6494V35.6285V35.6076V35.5864V35.5653V35.5441V35.523V35.5018V35.4805V35.4591V35.4377V35.4161V35.3947V35.3731V35.3515V35.3297V35.3081V35.2863V35.2645V35.2426V35.2206V35.1988V35.1767V35.1547V35.1324V35.1103V35.0881V35.0658V35.0435V35.0212V34.9987V34.9762V34.9537V34.9312V34.9087V34.886V34.8635V34.8408V34.8181V34.7951V34.7724V34.7494V34.7265V34.7035V34.6806V34.6574V34.6345V34.6113V34.5881V34.5649V34.5418V34.5184V34.495V34.4718V34.4484V34.4248V34.4014V34.378V34.3543V34.3307V34.3071V34.2835V34.2598V34.2362V34.2124V34.1885V34.1647V34.1408V34.117V34.0931V34.0693V34.0452V34.0211V33.997V33.973V33.9489V33.9248V33.9007V33.8764V33.8524V33.8281V33.8038V33.7795V33.7552V33.7309V33.7063V33.682V33.6575V33.6332V33.6087V33.5842V33.5596V33.5351V33.5106V33.4858V33.4613V33.4366V33.412V33.3873V33.3625V33.3378V33.313V33.2883V33.2635V33.2388V33.2138V33.1891V33.1641V33.1393V33.1144V33.0894V33.0644V33.0397V33.0147V32.9895V32.9645V32.9395V32.9146V32.8896V32.8644V32.8394V32.8142V32.7892V32.764V32.7388V32.7139V32.6887V32.6635V32.6383V32.6131V32.5879V32.5627V32.5375V32.5123V32.4871V32.4619V32.4367V32.4112V32.386V32.3608V32.3356V32.3102V32.285V32.2596V32.2344V32.209V32.1838V32.1583V32.1331V32.1077V32.0825V32.0571V32.0319V32.0065V31.9813V31.9558V31.9304V31.9052V31.8798V31.8546V31.8292V31.8037V31.7785V31.7531V31.7279V31.7025V31.6773V31.6519V31.6264V31.6012V31.576V31.5506V31.5254V31.5V31.4748V31.4494V31.4242V31.399V31.3735V31.3483V31.3231V31.2979V31.2727V31.2475V31.2221V31.1969V31.1717V31.1465V31.1215V31.0963V31.0711V31.0459V31.021V30.9958V30.9706V30.9456V30.9204V30.8954V30.8704V30.8452V30.8203V30.7953V30.7703V30.7453V30.7204V30.6954V30.6704V30.6457V30.6207V30.5957V30.571V30.5462V30.5212V30.4965V30.4717V30.447V30.4222V30.3975V30.3727V30.3482V30.3235V30.2989V30.2742V30.2497V30.2251V30.2006V30.1761V30.1516V30.127V30.1027V30.0782V30.0539V30.0294V30.0051V29.9808V29.9565V29.9324V29.9081V29.8838V29.8597V29.8357V29.8116V29.7873V29.7634V29.7394V29.7153V29.6914V29.6674V29.6435V29.6197V29.5958V29.5722V29.5483V29.5245V29.5009V29.4772V29.4536V29.43V29.4064V29.383V29.3596V29.3359V29.3125V29.2891V29.266V29.2426V29.2194V29.1962V29.173V29.1499V29.1267V29.1035V29.0806V29.0576V29.0347V29.0117V28.989V28.966V28.9433V28.9206V28.8979V28.8754V28.8526V28.8301V28.8076V28.7851V28.7626V28.7404V28.7181V28.6958V28.6735V28.6513V28.6292V28.6072V28.5984V28.5894V28.5806V28.5716V28.5628V28.5538V28.5448V28.5358V28.5268V28.5178V28.5088V28.4998V28.4908V28.4818V28.4726V28.4636V28.4544V28.4452V28.4362V28.4269V28.4177V28.4085V28.3993V28.39V28.3808V28.3716V28.3624V28.3529V28.3437V28.3342V28.325V28.3156V28.3061V28.2969V28.2874V28.278V28.2685V28.2591V28.2496V28.2402V28.2307V28.2211V28.2116V28.2022V28.1925V28.183V28.1734V28.1639V28.1542V28.1446V28.1351V28.1254V28.1158V28.1061V28.0964V28.0867V28.0771V28.0674V28.0577V28.0478V28.0381V28.0285V28.0188V28.0089V27.9992V27.9893V27.9796V27.9697V27.9598V27.9502V27.9403V27.9304V27.9207V27.9108V27.9009V27.891V27.8811V27.8712V27.8613V27.8514V27.8415V27.8316V27.8217V27.8116V27.8017V27.7918V27.7819V27.7717V27.7618V27.7519V27.7418V27.7319V27.7218V27.7119V27.7018V27.6919V27.6817V27.6718V27.6617V27.6516V27.6417V27.6316V27.6214V27.6115V27.6014V27.5913V27.5812V27.5713V27.5611V27.551V27.5409V27.5308V27.5206V27.5107V27.5006V27.4905V27.4804V27.4702V27.4601V27.45V27.4399V27.4297V27.4196V27.4095V27.3994V27.3892V27.3791V27.369V27.3589V27.3487V27.3386V27.3285V27.3184V27.3082V27.2981V27.288V27.2779V27.2677V27.2576V27.2475V27.2374V27.227V27.2169V27.2068V27.1966V27.1865V27.1764V27.1663V27.1561V27.146V27.1359V27.126V27.1159V27.1057V27.0956V27.0855V27.0754V27.0652V27.0551V27.045V27.0349V27.025V27.0148V27.0047V26.9946V26.9847V26.9746V26.9644V26.9543V26.9444V26.9343V26.9242V26.9143V26.9041V26.8942V26.8841V26.8742V26.8641V26.8542V26.8441V26.8342V26.8243V26.8141V26.8042V26.7943V26.7842V26.7743V26.7644V26.7545V26.7446V26.7347V26.7248V26.7149V26.705V26.6951V26.6852V26.6753V26.6654V26.6557V26.6458V26.6359V26.626V26.6164V26.6065V26.5968V26.5869V26.5772V26.5673V26.5576V26.548V26.5383V26.5284V26.5187V26.509V26.4994V26.4897V26.48V26.4703V26.4607V26.4512V26.4415V26.4319V26.4224V26.4127V26.4031V26.3936V26.3842V26.3745V26.365V26.3556V26.3461V26.3367V26.327V26.3176V26.3083V26.2989V26.2894V26.28V26.2708V26.2613V26.2519V26.2426V26.2334V26.224V26.2147V26.2055V26.1963V26.1871V26.1778V26.1686V26.1594V26.1502V26.1412V26.1319V26.1227V26.1137V26.1047V26.0955V26.0865V26.0775V26.0685V26.0595V26.0505V26.0415V26.0325V26.0237V26.0147V26.0059V25.9969V25.9882V25.9794V25.9704V25.9616V25.9528V25.9443V25.9355V25.9267V25.918V25.9094V25.9006V25.8921V25.8835V25.875V25.8664V25.8579V25.8493V25.8408V25.8322V25.8239V25.8154V25.807V25.7987V25.7902V25.7818V25.7735V25.7652V25.7571V25.7488V25.7404V25.7323V25.724V25.7159V25.7078V25.6997V25.6916V25.6835V25.6754V25.6675V25.6594V25.6516V25.6435V25.6356V25.6277V25.6198V25.612V25.6043V25.5964V25.5888V25.5809V25.5733V25.5656V25.558V25.5503V25.5427V25.535V25.5276V25.5199V25.5125V25.5051V25.4977V25.4902V25.4828V25.4754V25.4682V25.4608V25.4536V25.4464V25.4392V25.432V25.4248V25.4176V25.4106V25.4034V25.3964V25.3894V25.3825V25.3755V25.3685V25.3618V25.3548V25.348V25.3413V25.3345V25.3278V25.321V25.3143V25.3078V25.301V25.2945V25.288V25.2814V25.2749V25.2686V25.2621V25.2558V25.2493V25.243V25.2367V25.2306V25.2243V25.2182V25.2119V25.2058V25.1998V25.1937V25.1876V25.1818V25.1757V25.1698V25.164V25.1581V25.1523V25.1467V25.1408V25.1352V25.1296V25.1239V25.1183V25.1127V25.1073V25.1017V25.0963V25.0909V25.0855V25.0801V25.0749V25.0695V25.0643V25.0591V25.054V25.049V25.0438V25.0389V25.0337V25.0288V25.0238V25.0191V25.0141V25.0094V25.0047V25V24.9952V24.9905V24.986V24.9813V24.9768V24.9723V24.968V24.9635V24.9592V24.9547V24.9505V24.9464V24.9421V24.9379V24.9338V24.9298V24.9257V24.9217V24.9178V24.9138V24.91V24.9061V24.9023V24.8987V24.8949V24.8913V24.8877V24.8841V24.8805V24.8771V24.8737V24.8704V24.867V24.8636V24.8602V24.8571V24.8539V24.8508V24.8476V24.8447V24.8418V24.8386V24.8359V24.833V24.8301V24.8274V24.8247V24.822V24.8193V24.8168V24.8143V24.8119V24.8094V24.8069V24.8047V24.8022V24.7999V24.7957V24.7916V24.7876V24.7837V24.7801V24.7768V24.7736V24.7705V24.7678V24.7651V24.7617V24.7594V24.7567V24.7545V24.7518C24.75 23.5091 25.7573 22.5 27 22.5Z" fill="#591F19"/>
</svg>
